<svg xmlns="http://www.w3.org/2000/svg" viewBox="0 0 100 100" width="100" height="100">
  <!-- Sun -->
  <circle cx="40" cy="35" r="20" fill="#FFA500"/>
  
  <!-- Sun rays -->
  <g stroke="#FFA500" stroke-width="3" stroke-linecap="round">
    <line x1="40" y1="8" x2="40" y2="14"/>
    <line x1="55.7" y1="15.3" x2="51.5" y2="19.5"/>
    <line x1="62" y1="35" x2="56" y2="35"/>
    <line x1="55.7" y1="54.7" x2="51.5" y2="50.5"/>
    <line x1="40" y1="62" x2="40" y2="56"/>
    <line x1="24.3" y1="54.7" x2="28.5" y2="50.5"/>
    <line x1="18" y1="35" x2="24" y2="35"/>
    <line x1="24.3" y1="15.3" x2="28.5" y2="19.5"/>
  </g>
  
  <!-- Cloud -->
  <path d="M 30 60
           C 30 55 35 50 42 50
           C 45 45 55 45 58 50
           C 65 50 70 55 70 60
           C 70 65 65 70 58 70
           L 42 70
           C 35 70 30 65 30 60 Z" 
        fill="#e4e4e4"/>
</svg>